<svg width="354" height="110" viewBox="0 0 354 110" fill="none" xmlns="http://www.w3.org/2000/svg">
<path fill-rule="evenodd" clip-rule="evenodd" d="M282 38.0724C282 35.614 279.803 33.7374 277.375 34.1215L216.375 43.7712C214.431 44.0787 213 45.7542 213 47.7221V82C213 84.2092 214.791 86 217 86H278C280.209 86 282 84.2092 282 82V38.0724ZM284 82C284 84.2092 285.791 86 288 86H350C352.209 86 354 84.2092 354 82V26.6825C354 24.2241 351.803 22.3475 349.375 22.7317L287.375 32.5396C285.431 32.8471 284 34.5226 284 36.4905V82ZM142 58.9537C142 56.9859 143.431 55.3103 145.375 55.0029L206.375 45.3531C208.803 44.969 211 46.8456 211 49.304V82C211 84.2092 209.209 86 207 86H146C143.791 86 142 84.2092 142 82V58.9537ZM140 60.5357C140 58.0773 137.803 56.2007 135.375 56.5848L74.375 66.2345C72.4313 66.542 71 68.2175 71 70.1854V82C71 84.2092 72.7909 86 75 86H136C138.209 86 140 84.2092 140 82V60.5357ZM0 81.417C0 79.4492 1.43132 77.7736 3.37501 77.4661L64.375 67.8164C66.8032 67.4323 69 69.3089 69 71.7673V82C69 84.2092 67.2091 86 65 86H4C1.79086 86 0 84.2092 0 82V81.417Z" fill="url(#paint0_linear_93_36)"/>
<path d="M16.4193 63.4084L19.4753 59.2164L16.5633 55.1844H19.1393L20.8353 57.6164L22.5793 55.1844H25.0113L22.1153 59.2164L25.1713 63.4084H22.5953L20.7073 60.8324L18.8353 63.4084H16.4193ZM25.668 58.0644V57.5524C25.668 54.2084 27.572 52.1124 30.276 52.1124C32.996 52.1124 34.9 54.2084 34.9 57.5524V58.0644C34.9 61.4724 32.996 63.5044 30.276 63.5044C27.572 63.5044 25.668 61.4724 25.668 58.0644ZM32.596 57.9844V57.6324C32.596 55.3284 31.652 54.0644 30.276 54.0644C28.916 54.0644 27.972 55.3284 27.972 57.6324V57.9844C27.972 60.3044 28.916 61.5524 30.276 61.5524C31.652 61.5524 32.596 60.3044 32.596 57.9844ZM35.2788 62.1764C35.2788 61.3924 35.8548 60.8324 36.6388 60.8324C37.4068 60.8324 37.9988 61.3924 37.9988 62.1764C37.9988 62.9444 37.4068 63.5044 36.6388 63.5044C35.8548 63.5044 35.2788 62.9444 35.2788 62.1764ZM43.388 55.7764C45.644 55.7764 47.164 57.3284 47.164 59.6164C47.164 62.1924 45.244 63.5044 42.924 63.5044C40.332 63.5044 38.732 61.8564 38.636 59.8084H40.924C41.036 60.8164 41.74 61.6164 42.94 61.6164C43.916 61.6164 44.844 60.9444 44.844 59.6164C44.844 58.4324 44.092 57.6004 42.924 57.6004C42.3 57.6004 41.436 57.8404 41.036 58.7684H38.812L39.132 52.2084H46.492V54.1444H41.228L41.1 56.5924C41.66 56.0804 42.396 55.7764 43.388 55.7764Z" fill="white"/>
<path d="M89.5266 52.0669L92.5826 47.8749L89.6706 43.8429H92.2466L93.9426 46.2749L95.6866 43.8429H98.1186L95.2226 47.8749L98.2786 52.0669H95.7026L93.8146 49.4909L91.9426 52.0669H89.5266ZM100.871 41.8909V40.8669H103.127V52.0669H100.823V44.8189C100.647 44.8669 100.455 44.8829 100.215 44.8829H98.3433V42.9789H100.007C100.647 42.9789 100.871 42.5469 100.871 41.8909ZM104.714 50.8349C104.714 50.0509 105.29 49.4909 106.074 49.4909C106.842 49.4909 107.434 50.0509 107.434 50.8349C107.434 51.6029 106.842 52.1629 106.074 52.1629C105.29 52.1629 104.714 51.6029 104.714 50.8349ZM107.822 46.7229V46.2109C107.822 42.8669 109.726 40.7709 112.43 40.7709C115.15 40.7709 117.054 42.8669 117.054 46.2109V46.7229C117.054 50.1309 115.15 52.1629 112.43 52.1629C109.726 52.1629 107.822 50.1309 107.822 46.7229ZM114.75 46.6429V46.2909C114.75 43.9869 113.806 42.7229 112.43 42.7229C111.07 42.7229 110.126 43.9869 110.126 46.2909V46.6429C110.126 48.9629 111.07 50.2109 112.43 50.2109C113.806 50.2109 114.75 48.9629 114.75 46.6429Z" fill="white"/>
<path d="M159.659 41.0381L162.715 36.8461L159.803 32.8141H162.379L164.075 35.2461L165.819 32.8141H168.251L165.355 36.8461L168.411 41.0381H165.835L163.947 38.4621L162.075 41.0381H159.659ZM171.003 30.8621V29.8381H173.259V41.0381H170.955V33.7901C170.779 33.8381 170.587 33.8541 170.347 33.8541H168.475V31.9501H170.139C170.779 31.9501 171.003 31.5181 171.003 30.8621ZM174.846 39.8061C174.846 39.0221 175.422 38.4621 176.206 38.4621C176.974 38.4621 177.566 39.0221 177.566 39.8061C177.566 40.5741 176.974 41.1341 176.206 41.1341C175.422 41.1341 174.846 40.5741 174.846 39.8061ZM182.956 33.4061C185.212 33.4061 186.732 34.9581 186.732 37.2461C186.732 39.8221 184.812 41.1341 182.492 41.1341C179.9 41.1341 178.3 39.4861 178.204 37.4381H180.492C180.604 38.4461 181.308 39.2461 182.508 39.2461C183.484 39.2461 184.412 38.5741 184.412 37.2461C184.412 36.0621 183.66 35.2301 182.492 35.2301C181.868 35.2301 181.004 35.4701 180.604 36.3981H178.38L178.7 29.8381H186.06V31.7741H180.796L180.668 34.2221C181.228 33.7101 181.964 33.4061 182.956 33.4061Z" fill="white"/>
<path d="M228.772 29.7751L231.828 25.5831L228.916 21.5511H231.492L233.188 23.9831L234.932 21.5511H237.364L234.468 25.5831L237.524 29.7751H234.948L233.06 27.1991L231.188 29.7751H228.772ZM237.797 29.7751V27.9991L242.053 24.4791C243.029 23.6791 243.637 23.0071 243.637 22.0951C243.637 20.9911 242.917 20.4151 241.893 20.4151C240.821 20.4151 240.085 21.1511 240.085 22.3671V22.5431H237.765V22.2231C237.765 20.1111 239.349 18.4791 241.909 18.4791C244.533 18.4791 245.957 19.9031 245.957 21.9991C245.957 23.6471 245.061 24.6551 243.653 25.7911L241.141 27.8391H246.021V29.7751H237.797ZM247.069 28.5431C247.069 27.7591 247.645 27.1991 248.429 27.1991C249.197 27.1991 249.789 27.7591 249.789 28.5431C249.789 29.3111 249.197 29.8711 248.429 29.8711C247.645 29.8711 247.069 29.3111 247.069 28.5431ZM250.177 24.4311V23.9191C250.177 20.5751 252.081 18.4791 254.785 18.4791C257.505 18.4791 259.409 20.5751 259.409 23.9191V24.4311C259.409 27.8391 257.505 29.8711 254.785 29.8711C252.081 29.8711 250.177 27.8391 250.177 24.4311ZM257.105 24.3511V23.9991C257.105 21.6951 256.161 20.4311 254.785 20.4311C253.425 20.4311 252.481 21.6951 252.481 23.9991V24.3511C252.481 26.6711 253.425 27.9191 254.785 27.9191C256.161 27.9191 257.105 26.6711 257.105 24.3511Z" fill="white"/>
<path d="M301.638 18.2772L304.694 14.0852L301.782 10.0532H304.358L306.054 12.4852L307.798 10.0532H310.23L307.334 14.0852L310.39 18.2772H307.814L305.926 15.7012L304.054 18.2772H301.638ZM310.663 18.2772V16.5012L314.919 12.9812C315.895 12.1812 316.503 11.5092 316.503 10.5972C316.503 9.49316 315.783 8.91716 314.759 8.91716C313.687 8.91716 312.951 9.65316 312.951 10.8692V11.0452H310.631V10.7252C310.631 8.61316 312.215 6.98116 314.775 6.98116C317.399 6.98116 318.823 8.40516 318.823 10.5012C318.823 12.1492 317.927 13.1572 316.519 14.2932L314.007 16.3412H318.887V18.2772H310.663ZM319.935 17.0452C319.935 16.2612 320.511 15.7012 321.295 15.7012C322.063 15.7012 322.655 16.2612 322.655 17.0452C322.655 17.8132 322.063 18.3732 321.295 18.3732C320.511 18.3732 319.935 17.8132 319.935 17.0452ZM328.045 10.6452C330.301 10.6452 331.821 12.1972 331.821 14.4852C331.821 17.0612 329.901 18.3732 327.581 18.3732C324.989 18.3732 323.389 16.7252 323.293 14.6772H325.581C325.693 15.6852 326.397 16.4852 327.597 16.4852C328.573 16.4852 329.501 15.8132 329.501 14.4852C329.501 13.3012 328.749 12.4692 327.581 12.4692C326.957 12.4692 326.093 12.7092 325.693 13.6372H323.469L323.789 7.07716H331.149V9.01316H325.885L325.757 11.4612C326.317 10.9492 327.053 10.6452 328.045 10.6452Z" fill="white"/>
<path d="M21.67 99.76V99H22.49V106H21.65V100.98C21.55 101.07 21.39 101.11 21.17 101.11H20.04V100.36H21.18C21.51 100.36 21.67 100.11 21.67 99.76ZM27.5308 106L25.8808 100.9H26.7408L28.0108 105.05L29.3508 100.9H30.1108L31.3808 105.05L32.7108 100.9H33.5408L31.8408 106H30.9408L29.7108 102.21L28.4308 106H27.5308ZM36.367 106.06C34.837 106.06 33.837 105.01 33.837 103.45C33.837 101.9 34.817 100.84 36.257 100.84C37.697 100.84 38.637 101.75 38.677 103.26C38.677 103.37 38.667 103.49 38.657 103.61H34.697V103.68C34.727 104.65 35.337 105.33 36.307 105.33C37.027 105.33 37.587 104.95 37.757 104.29H38.587C38.387 105.31 37.547 106.06 36.367 106.06ZM34.747 102.93H37.797C37.717 102.05 37.117 101.56 36.267 101.56C35.517 101.56 34.827 102.1 34.747 102.93ZM41.9627 106.06C40.4327 106.06 39.4327 105.01 39.4327 103.45C39.4327 101.9 40.4127 100.84 41.8527 100.84C43.2927 100.84 44.2327 101.75 44.2727 103.26C44.2727 103.37 44.2627 103.49 44.2527 103.61H40.2927V103.68C40.3227 104.65 40.9327 105.33 41.9027 105.33C42.6227 105.33 43.1827 104.95 43.3527 104.29H44.1827C43.9827 105.31 43.1427 106.06 41.9627 106.06ZM40.3427 102.93H43.3927C43.3127 102.05 42.7127 101.56 41.8627 101.56C41.1127 101.56 40.4227 102.1 40.3427 102.93ZM45.2084 106V99H46.0284V103.61L48.5884 100.9H49.5984L47.6084 103.01L49.7384 106H48.7484L47.0584 103.6L46.0284 104.66V106H45.2084Z" fill="white"/>
<path d="M86.22 106V105.29L88.94 102.93C89.59 102.37 90.13 101.83 90.13 101.07C90.13 100.19 89.53 99.69 88.6 99.69C87.7 99.69 87.1 100.29 87.1 101.25V101.38H86.26V101.2C86.26 99.88 87.19 98.94 88.6 98.94C90.11 98.94 90.99 99.77 90.99 101.03C90.99 102.08 90.31 102.74 89.48 103.45L87.38 105.23H91.04V106H86.22ZM95.6988 106L94.0488 100.9H94.9088L96.1788 105.05L97.5188 100.9H98.2788L99.5488 105.05L100.879 100.9H101.709L100.009 106H99.1087L97.8788 102.21L96.5988 106H95.6988ZM104.535 106.06C103.005 106.06 102.005 105.01 102.005 103.45C102.005 101.9 102.985 100.84 104.425 100.84C105.865 100.84 106.805 101.75 106.845 103.26C106.845 103.37 106.835 103.49 106.825 103.61H102.865V103.68C102.895 104.65 103.505 105.33 104.475 105.33C105.195 105.33 105.755 104.95 105.925 104.29H106.755C106.555 105.31 105.715 106.06 104.535 106.06ZM102.915 102.93H105.965C105.885 102.05 105.285 101.56 104.435 101.56C103.685 101.56 102.995 102.1 102.915 102.93ZM110.131 106.06C108.601 106.06 107.601 105.01 107.601 103.45C107.601 101.9 108.581 100.84 110.021 100.84C111.461 100.84 112.401 101.75 112.441 103.26C112.441 103.37 112.431 103.49 112.421 103.61H108.461V103.68C108.491 104.65 109.101 105.33 110.071 105.33C110.791 105.33 111.351 104.95 111.521 104.29H112.351C112.151 105.31 111.311 106.06 110.131 106.06ZM108.511 102.93H111.561C111.481 102.05 110.881 101.56 110.031 101.56C109.281 101.56 108.591 102.1 108.511 102.93ZM113.376 106V99H114.196V103.61L116.756 100.9H117.766L115.776 103.01L117.906 106H116.916L115.226 103.6L114.196 104.66V106H113.376ZM118.118 104.32H118.958C118.988 104.92 119.518 105.36 120.368 105.36C121.088 105.36 121.598 105.05 121.598 104.58C121.598 103.94 121.038 103.89 120.278 103.8C119.138 103.66 118.228 103.43 118.228 102.37C118.228 101.44 119.078 100.83 120.228 100.84C121.388 100.85 122.228 101.39 122.308 102.45H121.468C121.408 101.93 120.928 101.54 120.228 101.54C119.518 101.54 119.038 101.84 119.038 102.31C119.038 102.87 119.578 102.94 120.318 103.03C121.478 103.17 122.408 103.39 122.408 104.52C122.408 105.47 121.498 106.06 120.368 106.06C119.048 106.06 118.138 105.44 118.118 104.32Z" fill="white"/>
<path d="M160.99 102.36C161.63 102.48 162.3 102.99 162.3 104.06C162.3 105.25 161.3 106.06 159.78 106.06C158.26 106.06 157.28 105.23 157.28 103.84H158.11C158.12 104.76 158.84 105.31 159.83 105.31C160.74 105.31 161.44 104.8 161.44 104C161.44 103.27 160.84 102.8 159.75 102.8H159.15V102.07H159.7C160.74 102.07 161.26 101.55 161.26 100.84C161.26 100.13 160.62 99.69 159.78 99.69C158.9 99.69 158.26 100.22 158.25 101.02H157.42C157.43 99.79 158.39 98.94 159.77 98.94C161.21 98.94 162.12 99.69 162.12 100.79C162.12 101.67 161.66 102.18 160.99 102.36ZM167.05 106L165.4 100.9H166.26L167.53 105.05L168.87 100.9H169.63L170.9 105.05L172.23 100.9H173.06L171.36 106H170.46L169.23 102.21L167.95 106H167.05ZM175.887 106.06C174.357 106.06 173.357 105.01 173.357 103.45C173.357 101.9 174.337 100.84 175.777 100.84C177.217 100.84 178.157 101.75 178.197 103.26C178.197 103.37 178.187 103.49 178.177 103.61H174.217V103.68C174.247 104.65 174.857 105.33 175.827 105.33C176.547 105.33 177.107 104.95 177.277 104.29H178.107C177.907 105.31 177.067 106.06 175.887 106.06ZM174.267 102.93H177.317C177.237 102.05 176.637 101.56 175.787 101.56C175.037 101.56 174.347 102.1 174.267 102.93ZM181.482 106.06C179.952 106.06 178.952 105.01 178.952 103.45C178.952 101.9 179.932 100.84 181.372 100.84C182.812 100.84 183.752 101.75 183.792 103.26C183.792 103.37 183.782 103.49 183.772 103.61H179.812V103.68C179.842 104.65 180.452 105.33 181.422 105.33C182.142 105.33 182.702 104.95 182.872 104.29H183.702C183.502 105.31 182.662 106.06 181.482 106.06ZM179.862 102.93H182.912C182.832 102.05 182.232 101.56 181.382 101.56C180.632 101.56 179.942 102.1 179.862 102.93ZM184.728 106V99H185.548V103.61L188.108 100.9H189.118L187.128 103.01L189.258 106H188.268L186.578 103.6L185.548 104.66V106H184.728ZM189.469 104.32H190.309C190.339 104.92 190.869 105.36 191.719 105.36C192.439 105.36 192.949 105.05 192.949 104.58C192.949 103.94 192.389 103.89 191.629 103.8C190.489 103.66 189.579 103.43 189.579 102.37C189.579 101.44 190.429 100.83 191.579 100.84C192.739 100.85 193.579 101.39 193.659 102.45H192.819C192.759 101.93 192.279 101.54 191.579 101.54C190.869 101.54 190.389 101.84 190.389 102.31C190.389 102.87 190.929 102.94 191.669 103.03C192.829 103.17 193.759 103.39 193.759 104.52C193.759 105.47 192.849 106.06 191.719 106.06C190.399 106.06 189.489 105.44 189.469 104.32Z" fill="white"/>
<path d="M226.13 104.29V103.54L229.7 99H230.64V103.52H231.77V104.29H230.64V106H229.8V104.29H226.13ZM229.8 100.03L227.07 103.52H229.8V100.03ZM236.216 106L234.566 100.9H235.426L236.696 105.05L238.036 100.9H238.796L240.066 105.05L241.396 100.9H242.226L240.526 106H239.626L238.396 102.21L237.116 106H236.216ZM245.053 106.06C243.523 106.06 242.523 105.01 242.523 103.45C242.523 101.9 243.503 100.84 244.943 100.84C246.383 100.84 247.323 101.75 247.363 103.26C247.363 103.37 247.353 103.49 247.343 103.61H243.383V103.68C243.413 104.65 244.023 105.33 244.993 105.33C245.713 105.33 246.273 104.95 246.443 104.29H247.273C247.073 105.31 246.233 106.06 245.053 106.06ZM243.433 102.93H246.483C246.403 102.05 245.803 101.56 244.953 101.56C244.203 101.56 243.513 102.1 243.433 102.93ZM250.648 106.06C249.118 106.06 248.118 105.01 248.118 103.45C248.118 101.9 249.098 100.84 250.538 100.84C251.978 100.84 252.918 101.75 252.958 103.26C252.958 103.37 252.948 103.49 252.938 103.61H248.978V103.68C249.008 104.65 249.618 105.33 250.588 105.33C251.308 105.33 251.868 104.95 252.038 104.29H252.868C252.668 105.31 251.828 106.06 250.648 106.06ZM249.028 102.93H252.078C251.998 102.05 251.398 101.56 250.548 101.56C249.798 101.56 249.108 102.1 249.028 102.93ZM253.894 106V99H254.714V103.61L257.274 100.9H258.284L256.294 103.01L258.424 106H257.434L255.744 103.6L254.714 104.66V106H253.894ZM258.635 104.32H259.475C259.505 104.92 260.035 105.36 260.885 105.36C261.605 105.36 262.115 105.05 262.115 104.58C262.115 103.94 261.555 103.89 260.795 103.8C259.655 103.66 258.745 103.43 258.745 102.37C258.745 101.44 259.595 100.83 260.745 100.84C261.905 100.85 262.745 101.39 262.825 102.45H261.985C261.925 101.93 261.445 101.54 260.745 101.54C260.035 101.54 259.555 101.84 259.555 102.31C259.555 102.87 260.095 102.94 260.835 103.03C261.995 103.17 262.925 103.39 262.925 104.52C262.925 105.47 262.015 106.06 260.885 106.06C259.565 106.06 258.655 105.44 258.635 104.32Z" fill="white"/>
<path d="M301.05 101.31C302.42 101.31 303.37 102.27 303.37 103.66C303.37 105.21 302.23 106.05 300.92 106.05C299.36 106.05 298.46 105.04 298.39 103.82H299.22C299.3 104.63 299.91 105.3 300.92 105.3C301.74 105.3 302.51 104.75 302.51 103.67C302.51 102.72 301.9 102.05 300.93 102.05C300.5 102.05 299.64 102.17 299.34 103L298.53 102.98L298.76 99H302.95V99.77H299.53L299.37 101.98C299.8 101.47 300.4 101.31 301.05 101.31ZM308.031 106L306.381 100.9H307.241L308.511 105.05L309.851 100.9H310.611L311.881 105.05L313.211 100.9H314.041L312.341 106H311.441L310.211 102.21L308.931 106H308.031ZM316.867 106.06C315.337 106.06 314.337 105.01 314.337 103.45C314.337 101.9 315.317 100.84 316.757 100.84C318.197 100.84 319.137 101.75 319.177 103.26C319.177 103.37 319.167 103.49 319.157 103.61H315.197V103.68C315.227 104.65 315.837 105.33 316.807 105.33C317.527 105.33 318.087 104.95 318.257 104.29H319.087C318.887 105.31 318.047 106.06 316.867 106.06ZM315.247 102.93H318.297C318.217 102.05 317.617 101.56 316.767 101.56C316.017 101.56 315.327 102.1 315.247 102.93ZM322.463 106.06C320.933 106.06 319.933 105.01 319.933 103.45C319.933 101.9 320.913 100.84 322.353 100.84C323.793 100.84 324.733 101.75 324.773 103.26C324.773 103.37 324.763 103.49 324.753 103.61H320.793V103.68C320.823 104.65 321.433 105.33 322.403 105.33C323.123 105.33 323.683 104.95 323.853 104.29H324.683C324.483 105.31 323.643 106.06 322.463 106.06ZM320.843 102.93H323.893C323.813 102.05 323.213 101.56 322.363 101.56C321.613 101.56 320.923 102.1 320.843 102.93ZM325.708 106V99H326.528V103.61L329.088 100.9H330.098L328.108 103.01L330.238 106H329.248L327.558 103.6L326.528 104.66V106H325.708ZM330.45 104.32H331.29C331.32 104.92 331.85 105.36 332.7 105.36C333.42 105.36 333.93 105.05 333.93 104.58C333.93 103.94 333.37 103.89 332.61 103.8C331.47 103.66 330.56 103.43 330.56 102.37C330.56 101.44 331.41 100.83 332.56 100.84C333.72 100.85 334.56 101.39 334.64 102.45H333.8C333.74 101.93 333.26 101.54 332.56 101.54C331.85 101.54 331.37 101.84 331.37 102.31C331.37 102.87 331.91 102.94 332.65 103.03C333.81 103.17 334.74 103.39 334.74 104.52C334.74 105.47 333.83 106.06 332.7 106.06C331.38 106.06 330.47 105.44 330.45 104.32Z" fill="white"/>
<defs>
<linearGradient id="paint0_linear_93_36" x1="354" y1="82.0408" x2="-1.39096e-05" y2="82.0407" gradientUnits="userSpaceOnUse">
<stop stop-color="#FF0F00"/>
<stop offset="1" stop-color="#DBFF00"/>
</linearGradient>
</defs>
</svg>
